<svg width="1980" height="1419" viewBox="0 0 1980 1419" fill="none" xmlns="http://www.w3.org/2000/svg">
<mask id="mask0_6_506" style="mask-type:alpha" maskUnits="userSpaceOnUse" x="-123" y="20" width="2232" height="1251">
<path d="M982.663 1057.32C946.249 1058.69 906.896 1076.6 892.327 1108.23C885.068 1123.69 883.931 1141.16 889.161 1156.68C894.283 1172.27 905.603 1186.07 922.11 1191.44C938.286 1196.95 957.785 1194.32 971.748 1184.53C985.707 1175.29 990.041 1156.64 981.824 1143.85C990.979 1155.39 989.262 1175.22 974.226 1186.94C993.615 1175.13 997.688 1147.15 980.598 1132.44C972.052 1125.27 958.141 1123.8 947.126 1129.16C935.332 1134.06 929.324 1149.37 936.747 1159.93C928.688 1149.4 934.605 1133.09 947.114 1127.78C958.716 1121.98 973.591 1123.45 982.885 1131.12C1001.35 1146.8 997.598 1176.31 977.36 1189.79C958.111 1203.21 930.968 1204.6 911.456 1193.78C891.576 1182.93 881.831 1162.01 880.646 1141.75C879.557 1121.17 888.271 1100.1 904.154 1085.01C920.206 1069.96 941.686 1061 963.464 1057.02C968.72 1056.08 974.019 1055.53 979.3 1055.28C981.126 1055.94 982.998 1056.63 984.824 1057.29C984.142 1057.29 983.421 1057.3 982.663 1057.32Z" fill="#48BAC3" fill-opacity="0.3"/>
<path d="M1968.19 688.315C1944.14 685.783 1923.43 669.527 1915.89 648.038C1899.49 602.624 1946.35 552.155 1999.44 550.355C2053.55 548.048 2099.97 587.11 2107.08 635.988C2114.52 685.994 2081.36 735.683 2034.07 761.337L2034 761.353L2033.92 761.37C1984.33 784.902 1922.88 778.331 1882.9 751.456C1841.06 725.993 1815.72 682.517 1812.74 637.98C1807.3 545.678 1893.75 467.461 1983.93 455.627C1894.35 474.62 1823.62 558.083 1837.14 634.817C1843.54 672.427 1868.37 705.789 1903.33 722.855C1937.94 741.266 1979.64 740.62 2011.92 722.259L2011.95 722.25L2011.99 722.242C2045.32 707.898 2072.48 674.348 2070.46 640.701C2069.89 606.926 2037.77 573.992 1998.98 572.712C1960.55 570.233 1917.93 606.711 1927.69 644.658C1931.95 662.819 1948.31 678.805 1969.26 682.794C1990.2 686.93 2014.77 675.901 2024.72 656.49C2016.85 676.471 1992.41 690.918 1968.19 688.315ZM2001.89 565.277C2030.29 566.955 2055.5 583.813 2068.24 605.426C2097.15 650.392 2064.1 708.868 2015.69 728.887C1992.89 741.607 1964.86 746.774 1938.32 742.49C1911.98 738.053 1886.01 725.345 1866.93 706.964C1827.38 670.574 1815.34 609.873 1840.36 558.543C1810.44 607.581 1815 672.736 1854.56 716.884C1873.94 739.116 1900.61 755.88 1932.07 764.048C1963.59 771.914 1999.25 768.676 2030.23 754.613C2060.09 738.47 2082.85 712.674 2093.73 683.711C2105.06 654.183 2100.12 621.373 2082.13 597.324C2064.45 573.28 2034.31 557.181 2002.32 557.862C1970.51 558.433 1940.38 577.063 1927.67 602.536C1942.84 578.097 1973.41 563.398 2001.89 565.277Z" fill="#48BAC3" fill-opacity="0.3"/>
<path d="M1895.54 59.1232C1883.92 59.9637 1873.94 68.6854 1872.27 78.5399C1870.55 88.3678 1875.72 98.3252 1884.15 103.455C1901.66 114.483 1927.75 102.478 1933.37 85.3312C1939.64 68.2618 1928.72 48.4002 1911.69 42.0908C1894.98 35.2059 1873.15 41.0121 1859.88 52.9353C1844.8 63.6858 1837.04 81.7226 1840.18 100.051C1842.58 118.284 1855.06 135.095 1872.97 144.589C1909.43 164.2 1964.39 148.37 1990.04 112.787C1967.89 149.91 1912.78 173.494 1866.96 154.606C1844.93 145.337 1827.41 126.552 1821.96 103.784C1815.48 81.5999 1823.17 53.6783 1843.96 36.3492L1843.99 36.341L1844.03 36.3329C1865.5 20.3441 1896.62 14.8097 1920.63 26.9917C1944.13 38.8126 1955.61 65.9882 1944.76 89.1057C1934.36 111.874 1900.4 123.236 1880.3 107.973C1870.76 100.866 1866.22 88.9276 1869.23 78.0262C1872.26 67.0127 1883.99 58.9702 1895.54 59.1232ZM1905.49 110.986C1920.69 110.034 1935.5 100.249 1941.48 86.505C1947.54 72.7448 1944.77 56.7296 1935.76 44.7613C1926.81 32.6379 1911.06 24.6063 1894.06 24.2726C1877.43 23.8226 1860.27 29.1077 1846.77 39.1948C1834.1 50.157 1826.08 65.0601 1824.44 80.1987C1822.94 95.3476 1826.69 109.957 1834.49 122.325C1849.78 147.421 1882.01 161.046 1912.24 156.824C1881.75 158.527 1853.13 142.43 1841.76 118.75C1835.84 107.174 1834.04 93.6012 1836.53 81.3616C1839.12 69.0627 1846.72 57.8035 1857.28 50.1529C1876.07 32.7038 1911.62 28.7641 1929.25 49.41C1937.95 58.7975 1941.97 72.8049 1937.73 85.4549C1933.52 98.0968 1920.62 108.745 1905.49 110.986Z" fill="#48BAC3" fill-opacity="0.3"/>
<path d="M455.823 574.564C460.486 578.756 484.041 574.83 488.52 557.237C494.196 539.425 478.505 511.877 449.433 510.233C419.872 507.425 385.703 525.754 373.586 554.58C361.671 583.037 369.895 617.721 388.288 640.815C407.005 664.674 436.007 677.861 462.025 680.988C515.643 686 550.198 667.226 549.783 668.293C550.015 667.12 517.153 687.818 461.29 685.64C433.936 683.776 402.03 671.642 379.965 646.756C358.473 622.11 346.016 586.006 358.199 549.952C370.81 514.205 411.699 488.246 451.575 489.766C494.632 490.39 523.109 528.631 515.555 561.562C511.975 578.855 498.388 592.296 483.947 598.705C469.675 604.969 453.592 605.927 441.003 600.304C416.258 588.459 417.106 567.94 416.985 565.863C416.394 550.835 430.372 539.232 439.978 538.565C450.08 537.213 454.6 542.051 454.132 545.885C453.784 550.092 450.581 553.892 449.756 557.366C448.661 561.079 449.728 562.701 449.766 564.578C449.854 565.176 449.074 570.562 455.823 574.564ZM427.842 583.891C429.043 585.013 434.245 594.564 450.197 598.456C465.716 601.824 488.122 596.838 502.614 578.6C516.879 559.866 513.743 532.691 497.27 514.662C481.06 495.418 449.451 489.964 424.518 497.59C398.674 504.142 377.405 522.01 367.075 542.081C356.306 562.354 357.054 583.585 360.976 599.753C369.257 633.011 388.795 648.284 388.221 648.225C388.74 648.405 370.332 631.839 364.36 599.069C361.548 583.027 362.263 562.827 373.274 544.822C383.894 526.864 404.059 511.914 426.922 507.375C449.875 501.946 473.441 508.06 485.192 523.505C497.194 538.243 497.051 558.684 487.574 569.003C478.237 579.981 462.921 581.718 456.524 579.744C449.447 577.589 447.551 573.207 446.896 572.766C443.293 567.334 439.664 561.218 434.402 559.111C428.555 556.331 418.883 569.882 427.842 583.891Z" fill="#48BAC3" fill-opacity="0.3"/>
<path d="M1345.92 1003.68C1214.66 1054.75 1070.9 1061.96 932.674 1056.36C865.922 1056.35 798.588 1060.02 732.839 1074.16C667.114 1088.22 604.139 1113.7 546.844 1147.39C604.093 1113.67 666.91 1087.83 732.654 1073.29C798.422 1058.68 865.944 1054.57 932.782 1054.41C1071.06 1059.71 1214.57 1053.53 1345.03 1001.55C1471.78 952.315 1579.99 862.835 1647.78 752.917C1683.63 698.99 1715.87 642.536 1758.6 591.895C1799.9 538.805 1863.29 507.369 1920.16 472.824L1921.28 474.326C1865.57 511.306 1804 543.587 1764.42 595.842C1722.91 646.222 1690.73 702.339 1654.25 756.362C1584.89 866.831 1473.43 955.518 1345.92 1003.68Z" fill="#48BAC3" fill-opacity="0.3"/>
<path d="M1022.2 929.086C1022.64 928.702 1032.04 945.155 1056.98 967.328C1081.61 989.203 1126.33 1014.23 1187.17 1019.05C1247.5 1024.3 1320.14 1010.73 1389.25 979.162C1458.75 948.382 1524.53 897.985 1567.4 832.922C1612.62 769.608 1647.07 700.427 1691.82 641.673C1734.78 581.557 1792.4 537.319 1845.23 506.391C1898.04 474.995 1944.49 452.383 1976.4 434.752C2008.54 417.436 2026.81 406.224 2028.21 405.454C2039.22 398.726 2048.74 394.089 2049.58 395.215C2050.42 396.306 2042.13 402.783 2031.05 409.563C2029.61 410.34 2011.18 421.55 1978.87 438.796C1946.77 456.321 1900.24 478.767 1847.61 509.836C1794.88 540.489 1737.84 583.844 1694.85 643.493C1650.12 701.736 1615.31 770.775 1569.68 834.178C1526.38 899.331 1459.81 949.934 1389.97 980.494C1320.48 1011.92 1247.58 1025.26 1187.08 1019.76C1126 1014.74 1081.3 989.45 1056.77 967.481C1031.93 945.214 1022.64 928.702 1022.2 929.086Z" fill="#48BAC3" fill-opacity="0.3"/>
<path d="M808 1138.18C790.083 1162.18 783.086 1190.75 769.352 1216.7C756.809 1242.2 731.565 1261.75 702.741 1270.13C731.665 1261.66 756.216 1241.68 768.481 1216.37C782.031 1190.51 789.532 1162.05 807.047 1137.65C823.972 1114.08 847.994 1094.06 876.379 1082.11C904.644 1069.97 934.889 1063.93 964.503 1057.38L964.711 1058.17C935.623 1067 905.636 1073.31 877.736 1084.91C849.739 1096.23 825.367 1114.98 808 1138.18Z" fill="#48BAC3" fill-opacity="0.3"/>
<path d="M1057.73 886.033C1081.81 919.048 1118.21 943.457 1159.54 955.76C1200.98 968.039 1246.22 969.47 1290.1 963.066C1297.52 961.887 1301.23 961.424 1301.25 961.528C1301.29 961.701 1297.6 962.451 1290.18 963.776C1246.37 971.322 1200.55 970.706 1158.48 958.341C1116.54 945.987 1079.76 920.389 1057.26 886.278C1053.55 880.507 1051.68 877.604 1051.68 877.604C1051.68 877.604 1053.51 880.515 1057.19 886.329C1066.29 900.054 1077.37 912.74 1090.31 923.763C1096.93 929.424 1104.08 934.537 1111.52 939.335C1118.71 943.748 1126.27 947.76 1134.05 951.36C1215.9 986.653 1315.43 971.814 1394.74 933.183C1402.64 929.364 1410.39 925.285 1417.98 920.952C1426.07 916.583 1433.57 911.471 1441.38 906.726C1516.33 858.908 1571.44 790.444 1621.27 722.233L1636.58 700.883L1651.08 680.432C1661.21 666.169 1671.46 651.951 1682.08 637.98C1686.44 632.232 1687.88 630.33 1687.88 630.33C1687.88 630.33 1686.44 632.232 1682.08 637.945C1630.01 705.436 1582.97 776.933 1521.23 838.216C1515.97 843.252 1513.2 845.691 1513.11 845.637C1512.96 845.523 1515.5 842.917 1520.62 837.767C1580.44 775.259 1626.56 703.56 1681.67 637.741C1686.31 632.187 1687.88 630.365 1687.88 630.365C1687.88 630.365 1686.34 632.179 1681.66 637.707C1670.12 651.148 1658.99 664.827 1647.91 678.533L1632.13 698.242L1615.85 719C1564.05 786.071 1511.37 854.237 1438.8 903.468C1431.21 908.311 1423.81 913.476 1415.86 917.813C1408.34 922.06 1400.64 926.019 1392.73 929.587C1312.95 965.418 1216.95 977.838 1137.02 945.906C1129.35 942.645 1121.82 939.1 1114.59 935.127C1107.06 930.856 1099.75 926.251 1092.91 921.072C1079.46 911.063 1067.63 899.189 1057.69 886.042C1053.65 880.448 1051.65 877.647 1051.65 877.647C1051.65 877.647 1053.73 880.432 1057.73 886.033Z" fill="#48BAC3" fill-opacity="0.3"/>
<path fill-rule="evenodd" clip-rule="evenodd" d="M1819.38 832.043C1838.61 880.917 1867.09 923.508 1900.82 959.471C1839.73 880.931 1804.24 783.315 1809.96 683.56C1814.58 584.622 1865.62 482.692 1958.38 421.876C1877.54 470.873 1822.23 552.505 1803.71 638.887C1783.86 725.477 1796.81 815.893 1833.1 895.938C1827.27 875.319 1822.86 854.034 1819.38 832.043Z" fill="#48BAC3" fill-opacity="0.3"/>
<path d="M1821.69 540.366C1811.91 548.502 1799.72 560.413 1788.6 575.252C1779.17 587.88 1770.34 602.92 1764.17 618.443C1758.71 632.366 1755.29 647.016 1754.99 660.13C1754.56 683.715 1765.83 696.179 1772.59 705.326C1779.08 714.132 1782.18 721.158 1778.17 724.187C1769.88 730.266 1727.11 722.873 1729.47 678.178C1729.93 669.995 1731.67 661.179 1734.34 652.236C1733.22 654.54 1732.18 656.792 1731.17 659.037C1719.65 684.982 1719.26 700.906 1718.28 712.282C1717.28 723.261 1715.44 731.591 1712.02 734.169C1706.46 738.215 1694.26 728.957 1700.38 700.938C1696.61 710.55 1693.03 720.882 1689.98 731.463C1685.37 747.49 1681.76 764.428 1680.05 779.765C1677 807.312 1681.68 822.486 1684.27 833.536C1686.77 844.169 1687.59 852.55 1685.05 855.882C1679.82 862.579 1657.43 851.792 1664.01 799.6C1665.98 784.172 1669.93 767.091 1674.98 750.499C1680.73 731.728 1688.04 713.097 1695.84 696.756C1704.08 679.339 1712.91 664.446 1720.73 653.138C1725.29 645.17 1730.32 637.139 1735.64 629.302C1746.96 612.572 1759.74 596.475 1772.27 582.605C1777.44 576.902 1782.52 571.578 1787.49 566.677C1794.94 559.039 1802.45 552.293 1809.43 546.673C1814.64 542.483 1819.47 538.99 1823.68 536.137C1828.89 532.527 1832.81 530.206 1835.18 528.904C1837.47 527.618 1839.02 526.816 1839.69 526.531C1841.95 525.686 1833.96 530.143 1821.69 540.366Z" fill="#48BAC3" fill-opacity="0.3"/>
<path d="M1964.33 405.745C1963.64 405.675 1963.16 405.125 1963.22 404.494C1963.33 403.856 1963.95 403.396 1964.64 403.431C1965.34 403.5 1965.82 404.051 1965.75 404.681C1965.68 405.312 1965.03 405.814 1964.33 405.745Z" fill="#48BAC3" fill-opacity="0.3"/>
<path d="M1939.41 397.962C1937.29 397.797 1935.8 396.083 1936.08 394.176C1936.34 392.233 1938.29 390.805 1940.41 390.97C1942.53 391.135 1944.02 392.848 1943.74 394.756C1943.43 396.672 1941.49 398.135 1939.41 397.962Z" fill="#48BAC3" fill-opacity="0.3"/>
<path d="M1948.7 429.373C1948.09 429.322 1947.7 428.824 1947.75 428.306C1947.84 427.78 1948.4 427.372 1948.96 427.396C1949.57 427.447 1949.99 427.902 1949.91 428.463C1949.83 429.024 1949.28 429.432 1948.7 429.373Z" fill="#48BAC3" fill-opacity="0.3"/>
<path d="M1921.01 432.148C1918.56 431.945 1916.82 429.995 1917.15 427.751C1917.47 425.506 1919.68 423.839 1922.17 424.034C1924.62 424.238 1926.36 426.188 1926.04 428.432C1925.67 430.685 1923.46 432.352 1921.01 432.148Z" fill="#48BAC3" fill-opacity="0.3"/>
<path d="M1924.12 454.653C1922.32 454.493 1921.01 453.067 1921.25 451.383C1921.47 449.743 1923.13 448.519 1924.96 448.637C1926.8 448.789 1928.07 450.258 1927.82 451.907C1927.62 453.582 1925.95 454.806 1924.12 454.653Z" fill="#48BAC3" fill-opacity="0.3"/>
<path d="M1905.03 454.112C1902.5 453.925 1900.7 451.879 1901.01 449.565C1901.32 447.251 1903.64 445.525 1906.21 445.739C1908.75 445.961 1910.54 447.972 1910.23 450.286C1909.88 452.608 1907.56 454.334 1905.03 454.112Z" fill="#48BAC3" fill-opacity="0.3"/>
<path d="M1868.88 429.793C1865.86 429.565 1863.7 427.125 1864.07 424.363C1864.45 421.6 1867.22 419.56 1870.24 419.788C1873.26 420.016 1875.42 422.455 1875.01 425.226C1874.67 427.98 1871.9 430.021 1868.88 429.793Z" fill="#48BAC3" fill-opacity="0.3"/>
<path d="M1851.87 449.4C1848.37 449.132 1845.92 446.317 1846.37 443.14C1846.82 439.963 1850 437.582 1853.51 437.885C1857.02 438.154 1859.47 440.969 1859.02 444.146C1858.53 447.296 1855.34 449.677 1851.87 449.4Z" fill="#48BAC3" fill-opacity="0.3"/>
<path d="M1840.94 469.672C1840 469.582 1839.32 468.821 1839.46 467.958C1839.59 467.095 1840.46 466.44 1841.4 466.53C1842.34 466.619 1843.02 467.38 1842.89 468.243C1842.75 469.106 1841.89 469.761 1840.94 469.672Z" fill="#48BAC3" fill-opacity="0.3"/>
<path d="M1851.08 515.405C1849.65 515.275 1848.64 514.147 1848.81 512.843C1849.01 511.531 1850.29 510.57 1851.72 510.7C1853.15 510.796 1854.15 511.959 1853.99 513.263C1853.82 514.532 1852.5 515.501 1851.08 515.405Z" fill="#48BAC3" fill-opacity="0.3"/>
<path d="M1809.31 467.849C1807.68 467.725 1806.51 466.413 1806.72 464.92C1806.92 463.426 1808.42 462.347 1810.05 462.471C1811.68 462.595 1812.84 463.907 1812.64 465.4C1812.43 466.894 1810.94 467.973 1809.31 467.849Z" fill="#48BAC3" fill-opacity="0.3"/>
<path d="M1798.03 499.107C1795.38 498.91 1793.52 496.768 1793.85 494.377C1794.18 491.986 1796.61 490.2 1799.22 490.406C1801.87 490.603 1803.73 492.745 1803.4 495.136C1803.07 497.527 1800.64 499.313 1798.03 499.107Z" fill="#48BAC3" fill-opacity="0.3"/>
<path d="M1770.38 482.478C1768.58 482.317 1767.27 480.891 1767.52 479.208C1767.77 477.56 1769.39 476.343 1771.22 476.461C1773.06 476.614 1774.33 478.048 1774.09 479.731C1773.87 481.372 1772.21 482.596 1770.38 482.478Z" fill="#48BAC3" fill-opacity="0.3"/>
<path d="M1801.02 551.038C1799.38 550.914 1798.22 549.602 1798.43 548.109C1798.63 546.615 1800.12 545.501 1801.76 545.66C1803.39 545.784 1804.55 547.096 1804.34 548.589C1804.13 550.048 1802.65 551.162 1801.02 551.038Z" fill="#48BAC3" fill-opacity="0.3"/>
<path d="M1770.63 527.197C1770.14 527.157 1769.81 526.755 1769.88 526.341C1769.95 525.892 1770.4 525.578 1770.86 525.626C1771.35 525.667 1771.67 526.069 1771.64 526.475C1771.53 526.897 1771.12 527.238 1770.63 527.197Z" fill="#48BAC3" fill-opacity="0.3"/>
<path d="M1769.2 546.498C1768.55 546.455 1768.12 545.931 1768.19 545.335C1768.27 544.74 1768.86 544.323 1769.51 544.366C1770.16 544.409 1770.59 544.933 1770.52 545.529C1770.4 546.098 1769.81 546.549 1769.2 546.498Z" fill="#48BAC3" fill-opacity="0.3"/>
<path d="M1750.53 572.043C1748.12 571.866 1746.26 570.45 1745.49 568.547C1746.25 567.951 1746.76 567.153 1746.91 566.178C1747.07 565.202 1746.75 564.256 1746.11 563.556C1747.37 561.73 1749.66 560.591 1752.1 560.76C1755.52 561.01 1757.91 563.764 1757.49 566.863C1757.04 570.04 1753.96 572.328 1750.53 572.043Z" fill="#48BAC3" fill-opacity="0.3"/>
<path d="M1746.92 566.212C1746.8 567.145 1746.25 567.986 1745.5 568.581C1744.71 569.22 1743.62 569.561 1742.52 569.469C1740.36 569.313 1738.83 567.573 1739.13 565.622C1739.4 563.68 1741.37 562.208 1743.53 562.365C1744.6 562.465 1745.5 562.926 1746.13 563.626C1746.71 564.299 1747.03 565.211 1746.92 566.212Z" fill="#48BAC3" fill-opacity="0.3"/>
<path d="M1713.49 550.705C1711.94 550.564 1710.84 549.348 1711.06 547.924C1711.24 546.508 1712.66 545.48 1714.21 545.586C1715.76 545.726 1716.83 546.95 1716.65 548.366C1716.47 549.782 1715.04 550.81 1713.49 550.705Z" fill="#48BAC3" fill-opacity="0.3"/>
<path d="M1705.68 601.852C1702.78 601.599 1700.6 599.635 1700.18 597.113C1701.33 596.289 1702.19 595.02 1702.37 593.604C1702.44 593.008 1702.4 592.437 1702.28 591.882C1703.61 590.766 1705.4 590.131 1707.27 590.275C1710.78 590.544 1713.22 593.359 1712.82 596.562C1712.38 599.774 1709.2 602.155 1705.68 601.852Z" fill="#48BAC3" fill-opacity="0.3"/>
<path d="M1700.18 597.113C1699.07 597.93 1697.61 598.387 1696.09 598.238C1693.03 597.984 1690.86 595.509 1691.22 592.712C1691.63 589.907 1694.44 587.823 1697.5 588.078C1699.91 588.29 1701.77 589.852 1702.24 591.89C1702.36 592.445 1702.44 593.008 1702.33 593.612C1702.19 595.055 1701.37 596.281 1700.18 597.113Z" fill="#48BAC3" fill-opacity="0.3"/>
<path d="M1649.66 547.468C1649.01 547.425 1648.53 546.874 1648.6 546.244C1648.67 545.613 1649.3 545.189 1649.99 545.223C1650.68 545.258 1651.16 545.809 1651.05 546.447C1650.95 547.086 1650.32 547.545 1649.66 547.468Z" fill="#48BAC3" fill-opacity="0.3"/>
<path d="M1640.09 594.857C1637.85 594.682 1636.26 592.881 1636.55 590.826C1636.83 588.772 1638.87 587.249 1641.16 587.416C1643.4 587.591 1644.99 589.393 1644.7 591.447C1644.42 593.502 1642.34 595.032 1640.09 594.857Z" fill="#48BAC3" fill-opacity="0.3"/>
<path d="M1637.11 624.93C1637.56 624.979 1637.87 625.312 1637.8 625.726C1637.72 626.14 1637.35 626.438 1636.86 626.397C1636.4 626.349 1636.09 626.016 1636.17 625.602C1636.24 625.188 1636.65 624.882 1637.11 624.93Z" fill="#48BAC3" fill-opacity="0.3"/>
<path d="M1588.34 553.558C1585.28 553.304 1583.11 550.864 1583.48 548.067C1583.89 545.262 1586.66 543.221 1589.75 543.432C1592.82 543.687 1594.98 546.127 1594.61 548.924C1594.21 551.729 1591.4 553.813 1588.34 553.558Z" fill="#48BAC3" fill-opacity="0.3"/>
<path d="M1580.63 551.283C1579.98 551.24 1579.55 550.716 1579.62 550.12C1579.7 549.524 1580.29 549.108 1580.94 549.151C1581.59 549.193 1582.03 549.718 1581.95 550.313C1581.88 550.909 1581.29 551.325 1580.63 551.283Z" fill="#48BAC3" fill-opacity="0.3"/>
<path d="M1562.67 566.018C1559.69 565.782 1557.62 563.395 1558.01 560.702C1558.4 558.009 1561.1 555.985 1564.04 556.229C1567.01 556.465 1569.09 558.852 1568.7 561.545C1568.31 564.238 1565.61 566.263 1562.67 566.018Z" fill="#48BAC3" fill-opacity="0.3"/>
<path d="M1555.2 642.688C1553.28 642.552 1551.95 640.988 1552.18 639.27C1552.41 637.517 1554.19 636.233 1556.1 636.37C1558.01 636.506 1559.35 638.071 1559.11 639.789C1558.88 641.507 1557.11 642.825 1555.2 642.688Z" fill="#48BAC3" fill-opacity="0.3"/>
<path d="M1524.42 567.416C1523.4 567.343 1522.7 566.513 1522.82 565.58C1522.94 564.648 1523.89 563.977 1524.9 564.05C1525.92 564.123 1526.66 564.945 1526.5 565.886C1526.38 566.818 1525.44 567.49 1524.42 567.416Z" fill="#48BAC3" fill-opacity="0.3"/>
<path d="M1511.78 633.005C1513.86 633.178 1515.3 634.83 1515.05 636.695C1514.77 638.568 1512.9 639.98 1510.82 639.807C1508.74 639.634 1507.3 637.982 1507.55 636.117C1507.83 634.244 1509.7 632.832 1511.78 633.005Z" fill="#48BAC3" fill-opacity="0.3"/>
<path d="M1485.12 602.354C1483.33 602.227 1482.06 600.793 1482.27 599.153C1482.48 597.513 1484.15 596.323 1485.95 596.449C1487.74 596.575 1489.01 598.044 1488.79 599.65C1488.54 601.298 1486.91 602.48 1485.12 602.354Z" fill="#48BAC3" fill-opacity="0.3"/>
<path d="M1460.05 601.452C1457.93 601.287 1456.41 599.582 1456.68 597.639C1456.94 595.697 1458.89 594.269 1461.05 594.425C1463.17 594.59 1464.69 596.295 1464.43 598.238C1464.16 600.18 1462.18 601.651 1460.05 601.452Z" fill="#48BAC3" fill-opacity="0.3"/>
<path d="M1435.65 587.069C1432.63 586.841 1430.51 584.393 1430.89 581.665C1431.27 578.937 1434.04 576.862 1437.07 577.125C1440.08 577.353 1442.21 579.8 1441.83 582.528C1441.41 585.299 1438.68 587.331 1435.65 587.069Z" fill="#48BAC3" fill-opacity="0.3"/>
<path d="M1438.24 631.835C1435.83 631.657 1434.13 629.699 1434.43 627.498C1434.72 625.296 1436.94 623.664 1439.35 623.876C1441.76 624.053 1443.46 626.011 1443.16 628.212C1442.87 630.414 1440.65 632.046 1438.24 631.835Z" fill="#48BAC3" fill-opacity="0.3"/>
<path d="M1419.53 581.073C1416.96 580.86 1415.12 578.787 1415.46 576.431C1415.8 574.074 1418.15 572.305 1420.76 572.51C1423.33 572.724 1425.18 574.797 1424.84 577.153C1424.5 579.51 1422.11 581.287 1419.53 581.073Z" fill="#48BAC3" fill-opacity="0.3"/>
<path d="M1423.8 640.708C1423.71 641.416 1422.98 641.934 1422.24 641.873C1421.47 641.82 1420.93 641.174 1421.03 640.5C1421.12 639.792 1421.85 639.274 1422.62 639.327C1423.36 639.388 1423.9 640.035 1423.8 640.708Z" fill="#48BAC3" fill-opacity="0.3"/>
<path d="M1384.05 586.268C1382.67 586.164 1381.71 585.062 1381.88 583.793C1382.05 582.524 1383.3 581.606 1384.69 581.71C1386.07 581.814 1387.03 582.915 1386.86 584.184C1386.68 585.418 1385.44 586.372 1384.05 586.268Z" fill="#48BAC3" fill-opacity="0.3"/>
<path d="M1369.71 639.858C1368.11 639.726 1367 638.441 1367.21 637.017C1367.43 635.558 1368.88 634.487 1370.48 634.619C1372.07 634.751 1373.18 636.037 1373.01 637.487C1372.75 638.919 1371.3 639.991 1369.71 639.858Z" fill="#48BAC3" fill-opacity="0.3"/>
<path d="M1357.9 673.185C1354.8 672.939 1352.58 670.438 1352.98 667.598C1353.38 664.758 1356.23 662.666 1359.33 662.913C1362.43 663.159 1364.65 665.66 1364.25 668.5C1363.85 671.34 1361 673.432 1357.9 673.185Z" fill="#48BAC3" fill-opacity="0.3"/>
<path d="M1341.82 669.612C1340.92 669.549 1340.29 668.814 1340.4 668.029C1340.51 667.208 1341.31 666.639 1342.2 666.702C1343.1 666.765 1343.74 667.5 1343.62 668.285C1343.51 669.071 1342.71 669.675 1341.82 669.612Z" fill="#48BAC3" fill-opacity="0.3"/>
<path d="M1330.15 692.252C1327.21 692.008 1325.14 689.656 1325.5 687.005C1325.89 684.312 1328.56 682.331 1331.5 682.575C1334.44 682.819 1336.51 685.171 1336.15 687.822C1335.8 690.507 1333.09 692.496 1330.15 692.252Z" fill="#48BAC3" fill-opacity="0.3"/>
<path d="M1307.21 634.018C1305.49 633.875 1304.32 632.529 1304.51 630.966C1304.71 629.438 1306.26 628.273 1307.98 628.415C1309.69 628.558 1310.86 629.904 1310.67 631.467C1310.44 633.003 1308.88 634.134 1307.21 634.018Z" fill="#48BAC3" fill-opacity="0.3"/>
<path d="M1298.39 643.688C1297.57 643.609 1297 642.97 1297.12 642.219C1297.24 641.468 1297.96 640.915 1298.78 640.995C1299.6 641.074 1300.18 641.713 1300.06 642.464C1299.97 643.172 1299.2 643.733 1298.39 643.688Z" fill="#48BAC3" fill-opacity="0.3"/>
<path d="M1282.97 668.106C1281.71 668.012 1280.77 666.98 1280.95 665.78C1281.11 664.624 1282.29 663.756 1283.59 663.842C1284.85 663.935 1285.79 664.968 1285.6 666.133C1285.46 667.359 1284.28 668.226 1282.97 668.106Z" fill="#48BAC3" fill-opacity="0.3"/>
<path d="M1263.4 629.311C1261.2 629.127 1259.62 627.361 1259.91 625.341C1260.2 623.321 1262.21 621.842 1264.42 622.025C1266.62 622.208 1268.2 623.975 1267.91 625.995C1267.61 627.98 1265.61 629.494 1263.4 629.311Z" fill="#48BAC3" fill-opacity="0.3"/>
<path d="M1236.46 610.9C1235.81 610.858 1235.33 610.307 1235.4 609.711C1235.48 609.115 1236.1 608.656 1236.75 608.699C1237.4 608.742 1237.88 609.292 1237.81 609.888C1237.69 610.492 1237.11 610.943 1236.46 610.9Z" fill="#48BAC3" fill-opacity="0.3"/>
<path d="M1212.01 651.16C1210.17 651.007 1208.86 649.547 1209.1 647.829C1209.34 646.146 1211 644.887 1212.87 645.031C1214.71 645.184 1216.02 646.644 1215.79 648.362C1215.54 650.046 1213.89 651.305 1212.01 651.16Z" fill="#48BAC3" fill-opacity="0.3"/>
<path d="M1199.79 671.562C1198.35 671.432 1197.35 670.304 1197.51 668.965C1197.67 667.662 1198.99 666.692 1200.45 666.78C1201.88 666.91 1202.89 668.038 1202.73 669.377C1202.53 670.689 1201.21 671.658 1199.79 671.562Z" fill="#48BAC3" fill-opacity="0.3"/>
<path d="M1167.23 637.343C1164.53 637.12 1162.64 634.986 1163 632.552C1163.37 630.118 1165.79 628.297 1168.48 628.521C1171.18 628.745 1173.04 630.887 1172.72 633.348C1172.35 635.747 1169.92 637.533 1167.23 637.343Z" fill="#48BAC3" fill-opacity="0.3"/>
<path d="M1165.54 667.502C1169.01 667.779 1171.45 670.559 1171.04 673.728C1170.59 676.905 1167.44 679.243 1163.97 678.966C1160.5 678.689 1158.07 675.909 1158.48 672.741C1158.92 669.564 1162.11 667.217 1165.54 667.502Z" fill="#48BAC3" fill-opacity="0.3"/>
<path d="M1147.21 676.335C1145.94 676.242 1145 675.209 1145.2 674.044C1145.35 672.888 1146.53 672.02 1147.83 672.106C1149.09 672.199 1150 673.24 1149.84 674.397C1149.66 675.596 1148.48 676.464 1147.21 676.335Z" fill="#48BAC3" fill-opacity="0.3"/>
<path d="M1131.78 634.012C1128.56 633.755 1126.28 631.159 1126.69 628.206C1127.11 625.254 1130.05 623.068 1133.28 623.325C1136.5 623.581 1138.78 626.178 1138.36 629.13C1137.95 632.083 1135 634.268 1131.78 634.012Z" fill="#48BAC3" fill-opacity="0.3"/>
<path d="M1132.81 709.344C1134 709.454 1134.84 710.399 1134.71 711.478C1134.54 712.566 1133.47 713.374 1132.28 713.264C1131.09 713.154 1130.25 712.209 1130.38 711.13C1130.51 710.051 1131.59 709.243 1132.81 709.344Z" fill="#48BAC3" fill-opacity="0.3"/>
<path d="M1101.2 667.13C1101.33 666.232 1102.23 665.569 1103.21 665.65C1104.19 665.732 1104.88 666.527 1104.75 667.425C1104.62 668.323 1103.72 668.986 1102.74 668.905C1101.8 668.815 1101.11 668.019 1101.2 667.13Z" fill="#48BAC3" fill-opacity="0.3"/>
<path d="M1085.4 649.827C1082.3 649.581 1080.13 647.107 1080.54 644.301C1080.94 641.496 1083.75 639.412 1086.85 639.659C1089.95 639.905 1092.12 642.38 1091.72 645.185C1091.27 647.964 1088.46 650.047 1085.4 649.827Z" fill="#48BAC3" fill-opacity="0.3"/>
<path d="M1061.5 706.939C1060.72 706.886 1060.14 706.248 1060.27 705.532C1060.36 704.824 1061.1 704.305 1061.87 704.358C1062.64 704.411 1063.18 705.058 1063.09 705.766C1063 706.474 1062.28 707.027 1061.5 706.939Z" fill="#48BAC3" fill-opacity="0.3"/>
<path d="M1041.44 650.955C1043.4 651.118 1044.77 652.675 1044.5 654.435C1044.24 656.196 1042.47 657.514 1040.52 657.386C1038.56 657.223 1037.18 655.667 1037.45 653.906C1037.71 652.111 1039.48 650.827 1041.44 650.955Z" fill="#48BAC3" fill-opacity="0.3"/>
<path d="M1027.53 640.283C1024.35 640.019 1022.12 637.483 1022.51 634.608C1022.94 631.725 1025.81 629.556 1029 629.821C1032.17 630.051 1034.41 632.621 1034.02 635.531C1033.59 638.413 1030.72 640.548 1027.53 640.283Z" fill="#48BAC3" fill-opacity="0.3"/>
<path d="M1001.94 638.407C1001.45 638.366 1001.13 637.999 1001.2 637.55C1001.26 637.101 1001.68 636.795 1002.17 636.836C1002.66 636.876 1002.98 637.244 1002.91 637.692C1002.85 638.141 1002.43 638.447 1001.94 638.407Z" fill="#48BAC3" fill-opacity="0.3"/>
<path d="M989.855 681.329C986.424 681.044 983.995 678.298 984.411 675.164C984.827 672.03 987.987 669.726 991.41 669.977C994.841 670.262 997.27 673.007 996.854 676.141C996.438 679.275 993.323 681.605 989.855 681.329Z" fill="#48BAC3" fill-opacity="0.3"/>
<path d="M976.3 629.326C975.404 629.263 974.812 628.555 974.918 627.735C975.025 626.915 975.826 626.345 976.722 626.409C977.618 626.472 978.256 627.206 978.142 627.992C977.997 628.82 977.196 629.389 976.3 629.326Z" fill="#48BAC3" fill-opacity="0.3"/>
<path d="M966.208 718.373C967.678 718.495 968.688 719.658 968.486 720.97C968.283 722.281 966.973 723.285 965.541 723.155C964.071 723.033 963.061 721.87 963.263 720.558C963.427 719.255 964.738 718.251 966.208 718.373Z" fill="#48BAC3" fill-opacity="0.3"/>
<path d="M948.874 697.808C945.367 697.54 942.839 694.706 943.317 691.487C943.757 688.275 946.979 685.886 950.531 686.181C954.077 686.441 956.567 689.283 956.089 692.503C955.642 695.679 952.42 698.069 948.874 697.808Z" fill="#48BAC3" fill-opacity="0.3"/>
<path d="M933.597 647.514C932.778 647.434 932.2 646.796 932.283 646.053C932.404 645.303 933.129 644.749 933.948 644.829C934.767 644.908 935.344 645.547 935.262 646.289C935.179 647.032 934.416 647.593 933.597 647.514Z" fill="#48BAC3" fill-opacity="0.3"/>
<path d="M905.648 652.846C903.688 652.683 902.313 651.126 902.581 649.366C902.848 647.605 904.613 646.287 906.566 646.415C908.526 646.578 909.9 648.134 909.633 649.895C909.335 651.698 907.562 652.982 905.648 652.846Z" fill="#48BAC3" fill-opacity="0.3"/>
<path d="M898.765 709.85C898.358 712.837 895.375 715.031 892.113 714.783C888.851 714.534 886.527 711.911 886.935 708.924C887.342 705.937 890.325 703.743 893.587 703.992C896.895 704.267 899.18 706.898 898.765 709.85Z" fill="#48BAC3" fill-opacity="0.3"/>
<path d="M884.692 652.955C881.1 652.668 878.557 649.766 878.982 646.485C879.446 643.196 882.737 640.755 886.328 641.042C889.919 641.329 892.463 644.232 892.038 647.513C891.582 650.836 888.329 653.269 884.692 652.955Z" fill="#48BAC3" fill-opacity="0.3"/>
<path d="M855.305 647.391C852.533 647.183 850.575 644.954 850.917 642.416C851.267 639.912 853.795 638.033 856.567 638.24C859.339 638.448 861.298 640.678 860.956 643.216C860.613 645.754 858.085 647.633 855.305 647.391Z" fill="#48BAC3" fill-opacity="0.3"/>
<path d="M841.707 717.136C841.094 717.085 840.669 716.595 840.751 716.034C840.832 715.473 841.387 715.065 841.999 715.116C842.612 715.167 843.037 715.656 842.956 716.217C842.836 716.787 842.281 717.195 841.707 717.136Z" fill="#48BAC3" fill-opacity="0.3"/>
<path d="M817.96 648.342C817.187 648.289 816.655 647.677 816.745 646.969C816.843 646.296 817.529 645.751 818.31 645.839C819.083 645.892 819.615 646.504 819.525 647.212C819.427 647.885 818.734 648.395 817.96 648.342Z" fill="#48BAC3" fill-opacity="0.3"/>
<path d="M790.024 667.302C787.252 667.095 785.286 664.83 785.636 662.327C785.978 659.789 788.545 657.901 791.324 658.144C794.096 658.351 796.062 660.616 795.713 663.119C795.37 665.657 792.803 667.545 790.024 667.302Z" fill="#48BAC3" fill-opacity="0.3"/>
<path d="M776.848 659.303C773.992 659.077 771.98 656.786 772.346 654.171C772.712 651.555 775.31 649.625 778.166 649.851C781.022 650.077 783.034 652.367 782.668 654.983C782.302 657.599 779.704 659.529 776.848 659.303Z" fill="#48BAC3" fill-opacity="0.3"/>
<path d="M760.059 685.027C758.305 684.893 757.083 683.485 757.303 681.879C757.523 680.274 759.118 679.1 760.872 679.235C762.626 679.369 763.848 680.777 763.628 682.382C763.401 683.953 761.812 685.161 760.059 685.027Z" fill="#48BAC3" fill-opacity="0.3"/>
<path d="M744.502 696.748C742.58 696.577 741.214 695.056 741.442 693.303C741.709 691.542 743.436 690.232 745.397 690.395C747.318 690.566 748.685 692.088 748.457 693.84C748.189 695.601 746.417 696.885 744.502 696.748Z" fill="#48BAC3" fill-opacity="0.3"/>
<path d="M731.101 719.358C730.366 719.297 729.881 718.712 729.94 718.047C730.037 717.374 730.7 716.906 731.427 716.933C732.163 716.994 732.648 717.579 732.589 718.244C732.492 718.918 731.836 719.42 731.101 719.358Z" fill="#48BAC3" fill-opacity="0.3"/>
<path d="M723.75 689.528C721.055 689.304 719.157 687.17 719.514 684.701C719.878 682.267 722.299 680.447 724.987 680.636C727.682 680.86 729.581 682.994 729.223 685.463C728.905 687.923 726.446 689.752 723.75 689.528Z" fill="#48BAC3" fill-opacity="0.3"/>
<path d="M705.109 677.145C703.884 677.043 702.995 676.072 703.15 674.915C703.312 673.793 704.422 672.977 705.678 673.036C706.903 673.138 707.792 674.109 707.637 675.265C707.475 676.388 706.372 677.239 705.109 677.145Z" fill="#48BAC3" fill-opacity="0.3"/>
<path d="M689.006 668.21C692.307 668.45 694.599 671.116 694.192 674.103C693.784 677.09 690.77 679.326 687.501 679.043C684.231 678.76 681.908 676.137 682.315 673.15C682.723 670.163 685.744 667.961 689.006 668.21Z" fill="#48BAC3" fill-opacity="0.3"/>
<path d="M668.171 647.593C665.966 647.41 664.432 645.67 664.725 643.65C665.024 641.664 666.99 640.158 669.195 640.342C671.401 640.525 672.934 642.265 672.642 644.285C672.343 646.27 670.331 647.75 668.171 647.593Z" fill="#48BAC3" fill-opacity="0.3"/>
<path d="M658.6 699.695C656.724 699.551 655.357 698.029 655.586 696.276C655.822 694.559 657.549 693.248 659.471 693.419C661.385 693.556 662.714 695.086 662.485 696.838C662.21 698.564 660.483 699.875 658.6 699.695Z" fill="#48BAC3" fill-opacity="0.3"/>
<path d="M634.597 702.266C633.043 702.126 631.934 700.875 632.153 699.451C632.371 698.027 633.79 696.964 635.344 697.104C636.898 697.245 638.007 698.495 637.827 699.911C637.57 701.343 636.182 702.364 634.597 702.266Z" fill="#48BAC3" fill-opacity="0.3"/>
<path d="M608.584 723.101C606.585 722.946 605.158 721.329 605.41 719.499C605.663 717.669 607.497 716.299 609.503 716.489C611.502 716.643 612.929 718.261 612.677 720.091C612.417 721.886 610.582 723.256 608.584 723.101Z" fill="#48BAC3" fill-opacity="0.3"/>
<path d="M576.349 646.47C572.964 646.212 570.535 643.466 570.958 640.367C571.382 637.268 574.503 634.972 577.888 635.231C581.273 635.489 583.702 638.235 583.279 641.334C582.855 644.433 579.733 646.729 576.349 646.47Z" fill="#48BAC3" fill-opacity="0.3"/>
<path d="M555.887 683.961C553.682 683.777 552.148 682.037 552.44 680.018C552.74 678.032 554.713 676.561 556.911 676.71C559.116 676.893 560.65 678.633 560.358 680.653C560.104 682.664 558.092 684.144 555.887 683.961Z" fill="#48BAC3" fill-opacity="0.3"/>
<path d="M529.744 686.661C527.049 686.437 525.143 684.268 525.462 681.808C525.819 679.339 528.278 677.51 530.973 677.734C533.668 677.958 535.574 680.127 535.255 682.587C534.898 685.056 532.439 686.884 529.744 686.661Z" fill="#48BAC3" fill-opacity="0.3"/>
<path d="M503.189 665.557C499.72 665.28 497.283 662.5 497.738 659.358C498.192 656.216 501.345 653.877 504.814 654.154C508.283 654.431 510.72 657.211 510.265 660.353C509.811 663.495 506.658 665.834 503.189 665.557Z" fill="#48BAC3" fill-opacity="0.3"/>
<path d="M484.766 716.027C482.852 715.891 481.523 714.361 481.752 712.608C481.988 710.89 483.715 709.58 485.637 709.751C487.552 709.888 488.88 711.417 488.651 713.17C488.415 714.888 486.688 716.198 484.766 716.027Z" fill="#48BAC3" fill-opacity="0.3"/>
<path d="M463.978 701.092C460.387 700.805 457.851 697.937 458.322 694.683C458.793 691.428 462.046 688.996 465.637 689.283C469.228 689.57 471.764 692.438 471.301 695.727C470.868 698.973 467.569 701.379 463.978 701.092Z" fill="#48BAC3" fill-opacity="0.3"/>
<path d="M444.689 712.81C441.22 712.534 438.783 709.753 439.192 706.585C439.639 703.408 442.792 701.069 446.26 701.346C449.729 701.623 452.166 704.404 451.757 707.572C451.31 710.749 448.157 713.087 444.689 712.81Z" fill="#48BAC3" fill-opacity="0.3"/>
<path d="M419.994 687.251C418.317 687.1 417.11 685.762 417.344 684.226C417.541 682.698 419.105 681.567 420.775 681.683C422.451 681.834 423.659 683.172 423.424 684.708C423.19 686.245 421.671 687.402 419.994 687.251Z" fill="#48BAC3" fill-opacity="0.3"/>
<path d="M398.547 683.55C397.567 683.468 396.838 682.681 396.968 681.783C397.098 680.885 398 680.222 398.98 680.303C399.96 680.385 400.651 681.18 400.559 682.07C400.468 682.96 399.527 683.631 398.547 683.55Z" fill="#48BAC3" fill-opacity="0.3"/>
<path d="M356.496 685.575C354.704 685.449 353.474 684.006 353.687 682.366C353.907 680.76 355.533 679.544 357.325 679.67C359.117 679.796 360.347 681.239 360.134 682.879C359.883 684.528 358.295 685.736 356.496 685.575Z" fill="#48BAC3" fill-opacity="0.3"/>
<path d="M343.287 710.21C340.147 709.972 337.884 707.445 338.306 704.527C338.697 701.652 341.611 699.51 344.751 699.748C347.89 699.986 350.16 702.548 349.731 705.431C349.309 708.349 346.434 710.483 343.287 710.21Z" fill="#48BAC3" fill-opacity="0.3"/>
<path d="M322.305 727.546C320.345 727.383 318.97 725.826 319.23 724.031C319.49 722.235 321.255 720.917 323.215 721.08C325.176 721.243 326.55 722.799 326.29 724.595C326.023 726.356 324.258 727.674 322.305 727.546Z" fill="#48BAC3" fill-opacity="0.3"/>
<path d="M310.659 738.798C309.594 738.698 308.812 737.849 308.965 736.874C309.119 735.899 310.09 735.184 311.147 735.25C312.211 735.349 312.994 736.198 312.84 737.173C312.694 738.183 311.723 738.897 310.659 738.798Z" fill="#48BAC3" fill-opacity="0.3"/>
<path d="M286.438 724.702C284.478 724.539 283.104 722.982 283.371 721.222C283.638 719.461 285.403 718.143 287.356 718.271C289.316 718.434 290.691 719.99 290.423 721.751C290.125 723.555 288.36 724.873 286.438 724.702Z" fill="#48BAC3" fill-opacity="0.3"/>
<path d="M286.243 773.359C284.857 773.255 283.901 772.153 284.072 770.884C284.243 769.615 285.492 768.697 286.878 768.801C288.264 768.905 289.22 770.006 289.049 771.275C288.878 772.544 287.629 773.463 286.243 773.359Z" fill="#48BAC3" fill-opacity="0.3"/>
<path d="M281.851 819.827C280.052 819.667 278.784 818.232 278.996 816.592C279.209 814.952 280.874 813.727 282.673 813.888C284.473 814.049 285.741 815.483 285.528 817.123C285.316 818.764 283.689 819.98 281.851 819.827Z" fill="#48BAC3" fill-opacity="0.3"/>
<path d="M227.939 753.865C225.289 753.667 223.429 751.525 223.755 749.099C224.081 746.674 226.51 744.888 229.166 745.12C231.816 745.317 233.676 747.459 233.35 749.885C233.016 752.276 230.588 754.062 227.939 753.865Z" fill="#48BAC3" fill-opacity="0.3"/>
<path d="M214.441 749.813C212.886 749.672 211.823 748.448 212.003 747.033C212.184 745.617 213.609 744.588 215.156 744.694C216.703 744.8 217.812 746.05 217.593 747.474C217.413 748.89 215.995 749.953 214.441 749.813Z" fill="#48BAC3" fill-opacity="0.3"/>
<path d="M190.065 776.462C188.756 776.342 187.852 775.302 188 774.11C188.186 772.911 189.365 772.043 190.667 772.129C191.969 772.214 192.88 773.289 192.732 774.481C192.585 775.672 191.367 776.548 190.065 776.462Z" fill="#48BAC3" fill-opacity="0.3"/>
<path d="M175.357 795.943C174.706 795.9 174.274 795.376 174.348 794.78C174.421 794.184 175.015 793.768 175.666 793.811C176.317 793.853 176.749 794.378 176.668 794.939C176.594 795.535 176.008 795.986 175.357 795.943Z" fill="#48BAC3" fill-opacity="0.3"/>
<path d="M147.163 806.91C143.855 806.635 141.525 803.977 141.932 800.99C142.37 797.96 145.384 795.724 148.692 795.999C152 796.273 154.331 798.931 153.923 801.918C153.516 804.905 150.502 807.142 147.163 806.91Z" fill="#48BAC3" fill-opacity="0.3"/>
<path d="M156.889 845.444C155.786 845.352 154.997 844.469 155.143 843.459C155.289 842.449 156.291 841.692 157.394 841.783C158.496 841.875 159.286 842.758 159.14 843.768C158.994 844.778 157.992 845.535 156.889 845.444Z" fill="#48BAC3" fill-opacity="0.3"/>
<path d="M103.036 807.093C100.509 806.906 98.7097 804.86 99.058 802.538C99.3679 800.224 101.696 798.532 104.223 798.72C106.75 798.907 108.549 800.953 108.201 803.275C107.891 805.588 105.57 807.315 103.036 807.093Z" fill="#48BAC3" fill-opacity="0.3"/>
<path d="M114.566 835.636C113.379 835.526 112.498 834.589 112.66 833.467C112.83 832.38 113.94 831.563 115.119 831.639C116.344 831.74 117.187 832.685 117.025 833.807C116.862 834.929 115.752 835.745 114.566 835.636Z" fill="#48BAC3" fill-opacity="0.3"/>
<path d="M89.5301 821.858C88.7109 821.779 88.1337 821.14 88.2621 820.424C88.3447 819.682 89.1152 819.155 89.8887 819.208C90.7005 819.253 91.285 819.926 91.1566 820.642C91.074 821.385 90.3419 821.903 89.5301 821.858Z" fill="#48BAC3" fill-opacity="0.3"/>
<path d="M109.656 882.686C108.308 882.574 107.398 881.499 107.545 880.307C107.731 879.107 108.941 878.197 110.251 878.317C111.56 878.438 112.509 879.505 112.361 880.696C112.176 881.896 111.004 882.798 109.656 882.686Z" fill="#48BAC3" fill-opacity="0.3"/>
<path d="M58.3607 836.939C57.5415 836.859 56.9644 836.221 57.047 835.478C57.168 834.727 57.8927 834.174 58.7503 834.246C59.5695 834.325 60.1467 834.964 60.0641 835.706C59.943 836.457 59.1799 837.018 58.3607 836.939Z" fill="#48BAC3" fill-opacity="0.3"/>
<path d="M88.3272 914.596C86.2829 914.415 84.8555 912.797 85.1005 910.932C85.3454 909.068 87.2185 907.69 89.2938 907.829C91.3381 908.01 92.7655 909.627 92.5206 911.492C92.2372 913.365 90.4025 914.734 88.3272 914.596Z" fill="#48BAC3" fill-opacity="0.3"/>
<path d="M10.9238 854.938C10.2728 854.895 9.84035 854.371 9.91414 853.775C9.98792 853.179 10.5813 852.763 11.2322 852.806C11.8832 852.848 12.3157 853.373 12.2419 853.968C12.1681 854.564 11.5747 854.98 10.9238 854.938Z" fill="#48BAC3" fill-opacity="0.3"/>
<path d="M40.968 929.569C39.3753 929.437 38.2668 928.187 38.4778 926.728C38.6889 925.269 40.1073 924.206 41.7 924.338C43.2926 924.471 44.4012 925.721 44.1901 927.18C44.0101 928.596 42.5533 929.667 40.968 929.569Z" fill="#48BAC3" fill-opacity="0.3"/>
<path d="M4.13084 899.923C2.94409 899.813 2.10125 898.869 2.23259 897.79C2.36393 896.71 3.47388 895.894 4.66063 896.004C5.84737 896.114 6.69022 897.059 6.55888 898.138C6.42754 899.217 5.3102 899.999 4.13084 899.923Z" fill="#48BAC3" fill-opacity="0.3"/>
<path d="M10.236 955.94C9.4626 955.887 8.9312 955.276 9.02122 954.568C9.11124 953.86 9.80496 953.349 10.5784 953.402C11.3519 953.455 11.8833 954.067 11.7932 954.775C11.7032 955.483 11.0095 955.993 10.236 955.94Z" fill="#48BAC3" fill-opacity="0.3"/>
<path d="M2045.69 310.957C1983.71 370.152 1913.9 422.098 1836.05 462.883C1722.84 523.011 1594.71 558.039 1464.3 577.854C1333.59 597.951 1200.49 604.96 1067.56 612.913C800.992 627.047 529.121 651.881 274.006 746.961C142.859 794.412 18.7514 858.166 -98.052 933.054L-81.7322 1009.74C27.7953 916.494 151.008 836.472 287.521 777.292C408.277 724.366 537.539 688.228 669.107 666.318C800.792 644.201 934.396 635.815 1067.84 631.016C1200.68 626.019 1333.95 624.555 1467.98 610.424C1601.53 596.502 1737.4 567.659 1862.16 509.24C1934.05 476.068 2000.82 433.544 2061.36 384.587L2045.69 310.957Z" fill="#48BAC3" fill-opacity="0.3"/>
<path d="M2068.76 419.339C1964.51 456.897 1849.88 464.725 1739.37 466.854C1607.29 468.643 1475.79 459.363 1343.64 456.526C1212.68 454.888 1075.37 454.165 950.837 505.539C825.823 557.304 738.003 658.108 655.298 753.545C575.401 852.373 469.137 934.371 346.27 983.975C223.987 1034.43 87.4149 1051.68 -42.795 1035.49C-54.3082 1034.17 -65.7358 1032.69 -77.193 1031.07L-76.9641 1032.14C-65.6679 1033.76 -54.3554 1035.27 -43.0031 1036.59C87.288 1053.16 224.302 1036.29 347.181 985.993C470.582 936.637 577.76 854.408 658.132 755.552C741.188 660.258 828.963 560.37 952.735 509.558C1075.9 459.092 1212.45 460.048 1343.22 462.089C1475.08 465.278 1606.63 474.948 1739.15 473.535C1849.63 471.666 1964.61 464.378 2070.35 426.83L2068.76 419.339Z" fill="#48BAC3" fill-opacity="0.3"/>
<path d="M1356.51 441.787C1323.21 481.14 1300.4 526.453 1277.41 571.115C1254.48 615.874 1231.25 661.095 1199.37 701.849C1167.78 742.651 1127.13 778.021 1080.04 803.703C985.24 855.492 873.641 869.636 767.516 867.28C660.264 865.091 556.774 841.944 451.991 827.23C557.101 840.461 660.951 862.479 767.743 863.823C873.507 865.423 984.052 850.851 1077.56 799.772C1123.95 774.418 1164.09 739.665 1195.52 699.406C1227.24 659.194 1250.67 614.33 1273.98 569.706C1297.36 525.179 1320.76 479.813 1354.81 440.555C1388.29 401.092 1433.66 370.009 1484.41 352.467C1433.9 370.756 1389.26 402.263 1356.51 441.787Z" fill="#48BAC3" fill-opacity="0.3"/>
<path d="M2066.02 406.472C2025.19 401.637 1984.69 393.037 1944.85 383.753C1869.61 366.122 1795.08 344.644 1717.58 333.367C1640.61 321.361 1558.47 323.871 1484.38 352.51C1558.98 324.923 1640.52 323.92 1716.66 337.333C1793.38 350.044 1866.89 373.118 1941.79 392.742C1983.22 403.465 2025.51 413.679 2068.84 419.72L2066.02 406.472Z" fill="#48BAC3" fill-opacity="0.3"/>
<path d="M-17.1197 800.073C-52.4562 803.678 -87.8015 809.316 -122.661 817.423L-120.159 829.181C-86.1126 820.267 -51.2736 813.759 -16.2752 809.319C140.16 789.839 297.805 806.39 451.96 827.273C298.214 804.164 141.4 784.354 -17.1197 800.073Z" fill="#48BAC3" fill-opacity="0.3"/>
<path d="M1538.48 419.919C1485.96 434.032 1426.71 411.621 1402.85 368.119C1390.45 347.158 1385.78 320.889 1396.22 297.386C1405.93 274.004 1428.31 255.138 1454.61 248.272C1475.45 241.408 1500.57 245.596 1516.98 260.121C1533.25 273.59 1541.85 299.891 1526.37 320.443C1519.17 330.314 1507.81 337.479 1494.76 339.859C1481.13 342.36 1466.93 336.501 1460.04 326.367C1452.63 316.995 1453.36 300.453 1464.94 293.023C1474.98 284.25 1493.79 288.947 1493.57 300.342L1493.38 300.383C1488.36 290.574 1475.71 292.76 1470.88 299.263C1465.21 305.617 1467.03 313.241 1472.16 319.038C1482.57 331.214 1504.25 325.622 1514.56 311.898C1525.68 298.512 1521.58 278.321 1508.62 264.911C1495.9 251.34 1473.27 244.917 1452.46 250.978C1427.25 258.264 1406.36 277.174 1397.55 299.859C1388.18 322.735 1393.06 347.909 1405.49 368.247C1429.25 410.32 1486.94 431.684 1538.02 417.985L1538.48 419.919Z" fill="#48BAC3" fill-opacity="0.3"/>
<path d="M1524.1 566.868C1498.27 580.484 1463.6 575.9 1444.67 556.146C1435.09 546.73 1428.81 533.637 1431 520.157C1432.78 506.836 1441.96 494.369 1454.88 487.63C1464.95 481.573 1478.89 480.744 1489.71 486.345C1500.29 491.38 1508.64 504.032 1503.37 516.574C1500.95 522.562 1495.97 527.645 1489.38 530.425C1482.51 533.375 1474.12 532.007 1469 527.585C1463.74 523.593 1461.74 514.921 1466.8 509.674C1470.87 503.914 1481.54 504.108 1483.04 510.059L1482.94 510.118C1478.89 505.614 1472.48 508.284 1470.83 512.224C1468.75 516.219 1470.79 519.954 1474.35 522.351C1481.61 527.44 1492.35 521.927 1495.83 513.574C1499.8 505.296 1494.74 495.28 1485.93 489.869C1477.21 484.329 1464.28 483.709 1454.13 489.35C1441.81 496.14 1433.45 508.47 1432.01 521.32C1430.32 534.33 1436.52 546.86 1446.07 555.921C1464.73 574.972 1498.43 579.146 1523.58 565.927L1524.1 566.868Z" fill="#48BAC3" fill-opacity="0.3"/>
<path d="M1238.12 198.747C1199.04 176.683 1145.45 175.183 1109.16 206.362C1076.84 234.122 1072.23 281.072 1102.91 310.252C1125.34 331.581 1162.33 333.859 1190.05 316.902C1215.65 301.268 1220.78 275.45 1196.54 257.662C1194.54 256.201 1192.15 259.284 1194.14 260.71C1228.84 286.17 1193.01 319.681 1158.8 323.879C1108.29 330.062 1071.67 279.561 1090.62 236.846C1113.01 186.365 1183.15 174.011 1230.04 198.69C1283.21 226.672 1289.45 285.38 1277.72 336.963C1265.49 390.865 1238.43 442.991 1198.57 485.081C1090.3 599.336 924.792 648.554 768.044 668.826C621.014 687.828 472.764 685.265 325.57 701.8C260.022 709.152 193.532 719.242 130.526 739.104C78.0132 755.682 27.2231 778.092 -19.6037 805.931C-51.44 824.851 -83.0593 847.242 -110.842 872.768L-110.023 876.618C-71.074 840.413 -23.8546 810.461 21.976 787.366C273.571 660.662 568.82 712.313 838.396 661.43C982.635 634.213 1140.87 575.305 1226.76 457.511C1256.81 416.275 1278.83 367.217 1285.12 318.385C1290.82 273.922 1282.26 223.72 1238.12 198.747Z" fill="#48BAC3" fill-opacity="0.3"/>
<path fill-rule="evenodd" clip-rule="evenodd" d="M1205.67 256.66C1202.48 252.374 1195.92 251.376 1191.09 254.472C1186.25 257.568 1184.88 263.586 1188.08 267.872C1191.28 272.158 1197.79 273.165 1202.67 270.061C1207.54 266.957 1208.88 260.981 1205.67 256.66Z" fill="#48BAC3" fill-opacity="0.3"/>
<path d="M2012.54 155.199C1979.98 180.146 1945.43 214.581 1909.34 254.997C1878.01 288.166 1842.38 325.259 1794.75 354.394C1747.19 383.693 1690.31 401.816 1631.76 410.761C1514.38 429.614 1391.78 413.328 1274.2 435.016C1215.82 445.7 1160.19 469.685 1117.64 507.236C1075.13 544.451 1045.63 592.603 1013.55 636.044C982.171 680.1 950.175 722.583 912.563 757.342C875.218 792.226 832.26 818.262 789.545 834.132C703.307 866.407 625.314 862.596 573.934 859.428C521.881 855.171 492.705 850.214 492.673 850.439C492.674 850.257 522.077 854.585 574.132 857.718C625.528 859.831 703.321 861.764 787.033 828.359C828.542 811.912 869.708 785.749 905.312 750.982C941.184 716.339 971.616 674.044 1001.81 629.516C1032.9 585.595 1060.84 536.688 1105.36 495.711C1149.5 454.885 1209.18 427.717 1270.25 415.302C1393.18 390.335 1516.62 404.123 1627.54 383.563C1682.74 373.989 1734.51 355.975 1776.23 329.041C1818.33 302.138 1850.94 267.1 1881.03 233.76C1921.3 186.797 1962.2 144.088 2003.87 114.447L2001.83 104.875C1982.12 118.205 1963.14 133.81 1945.6 150.92C1902.64 191.64 1865.71 241.48 1818.61 284.604C1772.52 328.381 1710.19 358.94 1635.8 372.814C1561.89 387.455 1480.18 386.9 1394.17 391.394C1309.49 395.929 1212.24 407.563 1133.41 461.826C1094.44 487.774 1063.18 523.72 1038.79 559C1013.45 594.267 990.467 630.299 965.716 664.605C917.591 733.469 855.416 794.555 774.515 823.446C694.682 853.778 607.067 852.63 525.667 844.686C362.495 826.483 207.877 794.75 72.8486 814.351C-0.243488 823.2 -61.1593 847.983 -109.951 877.146L-108.784 882.626C-59.6712 854.409 1.342 830.838 73.8231 823.642C206.826 807.155 357.707 841.496 522.388 863.583C604.677 873.259 696.102 877.04 783.51 846.112C871.762 816.889 941.935 750.402 992.725 680.682C1046.31 612.397 1086.05 534.297 1155.58 490.242C1224.62 444.66 1311.62 434.991 1394.57 432.31C1478.22 429.516 1562.19 432.201 1643.83 417.907C1725.05 405.191 1803.32 369.029 1856.41 320.099C1910.26 272.494 1948 223.459 1987.5 187.971C1996.59 179.584 2005.63 171.932 2014.62 164.979L2012.54 155.199Z" fill="#48BAC3" fill-opacity="0.3"/>
<path fill-rule="evenodd" clip-rule="evenodd" d="M156.132 1013.6C133.273 1000.63 125.795 967.564 146.447 946.42C156.857 936.337 173.626 932.007 188.442 936.213C204.355 940.113 214.37 957.957 207.569 973.688C215.405 957.918 205.54 938.52 188.498 934.026C172.907 929.006 154.506 933.393 142.695 944.245C119.628 967.426 126.373 1003.08 150.833 1018.86C175.548 1034.34 209 1032.62 233.88 1018.34C259.778 1004.12 272.626 976.846 274.308 951.763C276.316 926.14 266.761 900.657 248.559 882.235C230.476 863.425 203.924 853.27 177.155 850.194C123.143 842.765 65.4509 865.919 32.7443 906.196C61.8274 872.454 108.049 852.14 153.444 852.63C198.531 852.243 244.482 872.879 259.332 911.555C274.708 947.799 260.995 998.535 219.423 1013.36C199.954 1020.84 176.168 1019.34 160.32 1009.16C144.504 998.929 139.212 977.832 148.114 961.98C137.448 976.141 138.729 999.687 156.132 1013.6Z" fill="#48BAC3" fill-opacity="0.3"/>
<path d="M591.23 1259.24C591.211 1256.89 589.142 1255.08 586.559 1255.2C583.975 1255.31 581.906 1257.28 581.925 1259.63C581.945 1261.98 584.014 1263.79 586.597 1263.67C589.142 1263.57 591.204 1261.57 591.23 1259.24Z" fill="#48BAC3" fill-opacity="0.3"/>
<path d="M623.426 1263.12C624.483 1262.25 624.617 1260.8 623.698 1259.88C622.817 1258.94 621.2 1258.88 620.143 1259.76C619.079 1260.6 618.952 1262.08 619.872 1263.01C620.792 1263.94 622.369 1264 623.426 1263.12Z" fill="#48BAC3" fill-opacity="0.3"/>
<path d="M651.864 1239.92C652.155 1239.03 651.603 1238.13 650.631 1237.9C649.66 1237.67 648.652 1238.21 648.4 1239.1C648.109 1240 648.661 1240.9 649.632 1241.12C650.558 1241.33 651.566 1240.78 651.864 1239.92Z" fill="#48BAC3" fill-opacity="0.3"/>
<path d="M672.255 1259.58C674.279 1258.54 675.071 1256.23 673.998 1254.39C672.932 1252.59 670.432 1251.96 668.37 1253.01C666.308 1254.07 665.554 1256.37 666.627 1258.21C667.693 1260.01 670.193 1260.64 672.255 1259.58Z" fill="#48BAC3" fill-opacity="0.3"/>
<path d="M703.781 1250.52C705.632 1250.92 707.564 1249.82 708.045 1248.12C708.565 1246.42 707.437 1244.7 705.594 1244.33C703.743 1243.93 701.81 1245.03 701.329 1246.72C700.81 1248.43 701.892 1250.12 703.781 1250.52Z" fill="#48BAC3" fill-opacity="0.3"/>
<path d="M715.139 1231.31C715.282 1229.73 713.96 1228.41 712.267 1228.37C710.528 1228.31 709.031 1229.57 708.919 1231.12C708.776 1232.71 710.098 1234.02 711.791 1234.06C713.53 1234.12 715.034 1232.9 715.139 1231.31Z" fill="#48BAC3" fill-opacity="0.3"/>
<path d="M717.036 1204.41C718.113 1203.82 718.514 1202.5 717.871 1201.55C717.258 1200.56 715.874 1200.27 714.765 1200.91C713.688 1201.5 713.279 1202.78 713.93 1203.77C714.535 1204.72 715.958 1205 717.036 1204.41Z" fill="#48BAC3" fill-opacity="0.3"/>
<path d="M748.902 1193.93C751.203 1193.62 752.843 1191.71 752.638 1189.62C752.394 1187.53 750.36 1186.08 748.059 1186.39C745.758 1186.7 744.118 1188.6 744.316 1190.66C744.56 1192.75 746.632 1194.2 748.902 1193.93Z" fill="#48BAC3" fill-opacity="0.3"/>
<path d="M754.146 1174.65C755.709 1172.76 755.317 1170.16 753.312 1168.85C751.3 1167.5 748.431 1167.96 746.906 1169.85C745.343 1171.74 745.736 1174.34 747.74 1175.65C749.714 1177.01 752.583 1176.54 754.146 1174.65Z" fill="#48BAC3" fill-opacity="0.3"/>
<path d="M772.19 1163.49C772.811 1163.39 773.221 1162.87 773.18 1162.3C773.1 1161.74 772.544 1161.38 771.923 1161.48C771.301 1161.57 770.852 1162.11 770.932 1162.67C771.043 1163.19 771.607 1163.58 772.19 1163.49Z" fill="#48BAC3" fill-opacity="0.3"/>
<path d="M791.501 1150.75C794.16 1150.8 796.443 1148.9 796.608 1146.47C796.773 1144.05 794.782 1142.04 792.124 1141.99C789.466 1141.94 787.182 1143.84 787.017 1146.27C786.852 1148.69 788.843 1150.7 791.501 1150.75Z" fill="#48BAC3" fill-opacity="0.3"/>
<path d="M809.749 1118.12C810.076 1117.4 809.738 1116.56 808.959 1116.29C808.18 1116.02 807.25 1116.37 806.922 1117.09C806.594 1117.81 806.932 1118.64 807.712 1118.91C808.46 1119.23 809.383 1118.85 809.749 1118.12Z" fill="#48BAC3" fill-opacity="0.3"/>
<path d="M818.529 1093.59C820.239 1093.52 821.605 1092.21 821.595 1090.65C821.585 1089.1 820.207 1087.9 818.498 1087.98C816.789 1088.05 815.422 1089.36 815.432 1090.91C815.443 1092.47 816.82 1093.66 818.529 1093.59Z" fill="#48BAC3" fill-opacity="0.3"/>
<path d="M838.81 1074.85C839.539 1074.69 840.004 1074.05 839.864 1073.39C839.724 1072.73 839.037 1072.33 838.308 1072.49C837.579 1072.64 837.114 1073.29 837.254 1073.94C837.395 1074.6 838.081 1075 838.81 1074.85Z" fill="#48BAC3" fill-opacity="0.3"/>
<path d="M868.677 1078.53C869.845 1076.29 868.809 1073.68 866.357 1072.72C863.944 1071.74 861.039 1072.8 859.879 1075.08C858.749 1077.31 859.747 1079.92 862.199 1080.89C864.605 1081.83 867.51 1080.77 868.677 1078.53Z" fill="#48BAC3" fill-opacity="0.3"/>
<path d="M898.305 1077.88C898.54 1077.29 898.169 1076.68 897.527 1076.49C896.885 1076.3 896.2 1076.66 895.965 1077.26C895.731 1077.85 896.101 1078.46 896.743 1078.65C897.378 1078.8 898.07 1078.48 898.305 1077.88Z" fill="#48BAC3" fill-opacity="0.3"/>
<path d="M918.465 1061.77C918.76 1060.33 917.744 1058.95 916.175 1058.74C914.606 1058.53 913.05 1059.52 912.755 1060.96C912.46 1062.4 913.476 1063.78 915.045 1063.99C916.621 1064.23 918.139 1063.26 918.465 1061.77Z" fill="#48BAC3" fill-opacity="0.3"/>
<path d="M943.268 1063.53C944.495 1063.45 945.498 1062.51 945.454 1061.36C945.417 1060.24 944.428 1059.36 943.202 1059.44C941.975 1059.52 940.971 1060.46 941.008 1061.58C941.007 1062.7 942.034 1063.57 943.268 1063.53Z" fill="#48BAC3" fill-opacity="0.3"/>
<path d="M962.376 1039.09C963.099 1038.71 963.397 1037.85 962.981 1037.22C962.603 1036.57 961.67 1036.34 960.954 1036.74C960.231 1037.11 959.933 1037.97 960.349 1038.61C960.734 1039.29 961.621 1039.5 962.376 1039.09Z" fill="#48BAC3" fill-opacity="0.3"/>
<path d="M999.384 1054.27C1001.83 1053.49 1003.16 1051.11 1002.42 1048.91C1001.67 1046.71 999.102 1045.59 996.659 1046.36C994.216 1047.14 992.886 1049.56 993.627 1051.72C994.368 1053.88 996.941 1055.04 999.384 1054.27Z" fill="#48BAC3" fill-opacity="0.3"/>
<path d="M1022.54 1039.62C1024.46 1039.58 1026.08 1038.14 1026.11 1036.4C1026.14 1034.65 1024.63 1033.23 1022.72 1033.28C1020.8 1033.32 1019.22 1034.75 1019.15 1036.5C1019.08 1038.26 1020.62 1039.63 1022.54 1039.62Z" fill="#48BAC3" fill-opacity="0.3"/>
<path d="M582.361 1109.2C584.518 1109.72 586.826 1108.5 587.486 1106.51C588.146 1104.52 586.906 1102.46 584.749 1101.94C582.593 1101.42 580.284 1102.64 579.625 1104.63C578.965 1106.62 580.205 1108.68 582.361 1109.2Z" fill="#48BAC3" fill-opacity="0.3"/>
<path d="M595.685 1096.03C596.059 1094.39 594.884 1092.83 593.1 1092.55C591.279 1092.29 589.554 1093.42 589.18 1095.06C588.814 1096.73 589.982 1098.26 591.772 1098.56C593.555 1098.84 595.319 1097.7 595.685 1096.03Z" fill="#48BAC3" fill-opacity="0.3"/>
<path d="M600.56 1073.13C601.338 1070.75 599.902 1068.34 597.363 1067.72C594.786 1067.11 592.077 1068.52 591.292 1070.86C590.514 1073.24 591.95 1075.65 594.489 1076.27C597.066 1076.88 599.775 1075.47 600.56 1073.13Z" fill="#48BAC3" fill-opacity="0.3"/>
<path d="M644.773 1078.44C645.058 1077.33 644.316 1076.29 643.107 1076.07C641.898 1075.86 640.727 1076.58 640.443 1077.69C640.158 1078.8 640.9 1079.84 642.109 1080.06C643.28 1080.28 644.481 1079.52 644.773 1078.44Z" fill="#48BAC3" fill-opacity="0.3"/>
<path d="M662.934 1072.54C664.177 1071.41 664.154 1069.6 662.967 1068.55C661.773 1067.46 659.787 1067.56 658.583 1068.68C657.34 1069.82 657.364 1071.63 658.551 1072.68C659.737 1073.73 661.692 1073.68 662.934 1072.54Z" fill="#48BAC3" fill-opacity="0.3"/>
<path d="M662.22 1034.12C662.382 1032.06 660.649 1030.32 658.397 1030.3C656.137 1030.23 654.162 1031.89 654.038 1033.94C653.876 1036.01 655.601 1037.71 657.861 1037.77C660.121 1037.83 662.057 1036.19 662.22 1034.12Z" fill="#48BAC3" fill-opacity="0.3"/>
<path d="M691.425 1032.62C692.966 1030.62 692.512 1027.93 690.424 1026.6C688.297 1025.27 685.312 1025.76 683.771 1027.76C682.23 1029.75 682.683 1032.45 684.772 1033.78C686.868 1035.15 689.845 1034.62 691.425 1032.62Z" fill="#48BAC3" fill-opacity="0.3"/>
<path d="M715.886 1055.76C716.903 1055.08 717.105 1053.76 716.392 1052.86C715.679 1051.96 714.247 1051.83 713.23 1052.52C712.221 1053.24 712.011 1054.52 712.724 1055.42C713.476 1056.31 714.869 1056.45 715.886 1055.76Z" fill="#48BAC3" fill-opacity="0.3"/>
<path d="M742.029 1015.18C743.673 1015.55 745.397 1014.61 745.877 1013.09C746.356 1011.58 745.388 1010.04 743.744 1009.67C742.099 1009.29 740.375 1010.24 739.896 1011.75C739.423 1013.3 740.384 1014.8 742.029 1015.18Z" fill="#48BAC3" fill-opacity="0.3"/>
<path d="M773.67 1039.26C775.565 1037.99 776.059 1035.6 774.74 1033.92C773.42 1032.24 770.818 1031.89 768.923 1033.16C767.027 1034.44 766.533 1036.83 767.853 1038.5C769.172 1040.18 771.774 1040.53 773.67 1039.26Z" fill="#48BAC3" fill-opacity="0.3"/>
<path d="M806.996 1028.47C807.238 1026.97 806.076 1025.66 804.438 1025.5C802.799 1025.34 801.311 1026.45 801.069 1027.95C800.827 1029.46 801.989 1030.77 803.627 1030.93C805.259 1031.05 806.754 1029.97 806.996 1028.47Z" fill="#48BAC3" fill-opacity="0.3"/>
<path d="M834.949 1022.59C835.657 1021.21 834.996 1019.61 833.468 1019.03C831.979 1018.44 830.196 1019.11 829.495 1020.53C828.794 1021.95 829.448 1023.51 830.975 1024.09C832.457 1024.65 834.248 1024.01 834.949 1022.59Z" fill="#48BAC3" fill-opacity="0.3"/>
<path d="M847.455 1025.37C849.737 1024.59 850.935 1022.31 850.139 1020.27C849.344 1018.22 846.923 1017.22 844.641 1017.99C842.405 1018.79 841.161 1021.05 841.956 1023.1C842.752 1025.14 845.211 1026.14 847.455 1025.37Z" fill="#48BAC3" fill-opacity="0.3"/>
<path d="M875.423 1023.33C875.62 1022.57 875.098 1021.81 874.264 1021.66C873.43 1021.51 872.575 1022.02 872.378 1022.78C872.18 1023.55 872.702 1024.31 873.536 1024.46C874.37 1024.61 875.225 1024.1 875.423 1023.33Z" fill="#48BAC3" fill-opacity="0.3"/>
<path d="M890.584 1046.14C891.997 1045.8 892.881 1044.49 892.531 1043.22C892.22 1041.94 890.823 1041.23 889.411 1041.56C887.998 1041.9 887.114 1043.21 887.464 1044.48C887.814 1045.75 889.179 1046.51 890.584 1046.14Z" fill="#48BAC3" fill-opacity="0.3"/>
<path d="M913.735 1032.58C914.47 1032.64 915.163 1032.13 915.261 1031.46C915.358 1030.78 914.827 1030.17 914.092 1030.11C913.357 1030.05 912.663 1030.56 912.565 1031.23C912.468 1031.91 912.999 1032.52 913.735 1032.58Z" fill="#48BAC3" fill-opacity="0.3"/>
<path d="M1011.58 1024.48C1012.28 1023.82 1012.3 1022.77 1011.56 1022.13C1010.87 1021.52 1009.71 1021.54 1008.97 1022.21C1008.27 1022.87 1008.26 1023.96 1008.95 1024.57C1009.73 1025.2 1010.88 1025.17 1011.58 1024.48Z" fill="#48BAC3" fill-opacity="0.3"/>
<path d="M1048.85 1010.39C1050.01 1008.29 1049.12 1005.8 1046.87 1004.83C1044.62 1003.86 1041.84 1004.77 1040.68 1006.87C1039.52 1008.96 1040.42 1011.46 1042.67 1012.43C1044.93 1013.43 1047.7 1012.52 1048.85 1010.39Z" fill="#48BAC3" fill-opacity="0.3"/>
<path d="M1075.45 1034.13C1077.85 1032.96 1078.84 1030.29 1077.67 1028.18C1076.49 1026.04 1073.6 1025.24 1071.24 1026.4C1068.84 1027.56 1067.84 1030.24 1069.01 1032.34C1070.19 1034.49 1073.05 1035.29 1075.45 1034.13Z" fill="#48BAC3" fill-opacity="0.3"/>
<path d="M1097.12 1003.63C1099.2 1002.1 1099.58 999.372 1097.95 997.544C1096.35 995.708 1093.38 995.472 1091.3 997.037C1089.22 998.568 1088.84 1001.3 1090.47 1003.12C1092.06 1004.92 1095.04 1005.16 1097.12 1003.63Z" fill="#48BAC3" fill-opacity="0.3"/>
<path d="M1123.16 1016.11C1123.94 1015.07 1123.72 1013.67 1122.61 1012.96C1121.5 1012.25 1119.96 1012.55 1119.14 1013.59C1118.35 1014.63 1118.57 1016.03 1119.68 1016.74C1120.8 1017.44 1122.34 1017.15 1123.16 1016.11Z" fill="#48BAC3" fill-opacity="0.3"/>
<path d="M1149.06 1013.57C1151.6 1013.64 1153.81 1011.79 1154 1009.47C1154.19 1007.15 1152.25 1005.2 1149.71 1005.13C1147.16 1005.05 1144.95 1006.9 1144.76 1009.22C1144.61 1011.54 1146.51 1013.49 1149.06 1013.57Z" fill="#48BAC3" fill-opacity="0.3"/>
<path d="M1171.71 1014.84C1173.51 1014.24 1174.49 1012.43 1173.94 1010.81C1173.36 1009.19 1171.41 1008.34 1169.61 1008.94C1167.82 1009.54 1166.8 1011.35 1167.38 1012.97C1167.97 1014.58 1169.91 1015.4 1171.71 1014.84Z" fill="#48BAC3" fill-opacity="0.3"/>
<path d="M1190.69 1002.6C1191.33 1002.21 1191.49 1001.46 1191.13 1000.88C1190.72 1000.31 1189.9 1000.2 1189.25 1000.55C1188.61 1000.94 1188.45 1001.7 1188.82 1002.28C1189.26 1002.84 1190.05 1002.99 1190.69 1002.6Z" fill="#48BAC3" fill-opacity="0.3"/>
<path d="M1209.57 999.71C1211.1 998.588 1211.39 996.568 1210.21 995.187C1209.04 993.841 1206.84 993.657 1205.27 994.788C1203.75 995.91 1203.45 997.93 1204.63 999.311C1205.84 1000.68 1208.04 1000.83 1209.57 999.71Z" fill="#48BAC3" fill-opacity="0.3"/>
<path d="M1238.8 1004C1239.93 1001.77 1238.9 999.195 1236.5 998.257C1234.09 997.319 1231.23 998.364 1230.1 1000.6C1228.97 1002.83 1230 1005.4 1232.4 1006.34C1234.81 1007.28 1237.67 1006.24 1238.8 1004Z" fill="#48BAC3" fill-opacity="0.3"/>
<path d="M1254.44 979.829C1255.11 979.794 1255.61 979.29 1255.6 978.71C1255.59 978.096 1255.06 977.666 1254.43 977.692C1253.79 977.719 1253.26 978.231 1253.26 978.811C1253.23 979.433 1253.76 979.863 1254.44 979.829Z" fill="#48BAC3" fill-opacity="0.3"/>
<path d="M1275.51 979.296C1276.18 978.864 1276.32 978.035 1275.88 977.476C1275.44 976.917 1274.53 976.785 1273.9 977.209C1273.27 977.634 1273.08 978.47 1273.52 979.029C1273.97 979.623 1274.84 979.729 1275.51 979.296Z" fill="#48BAC3" fill-opacity="0.3"/>
<path d="M1295.26 969.365C1296.08 969.298 1296.7 968.622 1296.66 967.869C1296.62 967.117 1295.91 966.58 1295.08 966.648C1294.25 966.715 1293.63 967.391 1293.67 968.143C1293.71 968.896 1294.43 969.433 1295.26 969.365Z" fill="#48BAC3" fill-opacity="0.3"/>
<path d="M1311.37 964.958C1314.01 964.178 1315.51 961.611 1314.76 959.232C1314.01 956.853 1311.26 955.591 1308.62 956.371C1305.98 957.185 1304.48 959.718 1305.22 962.096C1305.97 964.475 1308.72 965.737 1311.37 964.958Z" fill="#48BAC3" fill-opacity="0.3"/>
<path d="M1346.51 970.058C1347.7 969.987 1348.66 969.056 1348.63 967.94C1348.6 966.859 1347.62 966.016 1346.39 966.096C1345.2 966.168 1344.24 967.098 1344.27 968.214C1344.35 969.322 1345.32 970.13 1346.51 970.058Z" fill="#48BAC3" fill-opacity="0.3"/>
<path d="M1350.55 936.245C1351.14 936.373 1351.79 936.053 1351.95 935.476C1352.11 934.933 1351.79 934.349 1351.2 934.221C1350.6 934.058 1349.96 934.413 1349.79 934.956C1349.59 935.541 1349.96 936.117 1350.55 936.245Z" fill="#48BAC3" fill-opacity="0.3"/>
<path d="M1394.29 949.521C1396.36 948.501 1397.18 946.15 1396.15 944.304C1395.11 942.458 1392.57 941.804 1390.5 942.824C1388.43 943.844 1387.6 946.195 1388.64 948.041C1389.67 949.887 1392.22 950.542 1394.29 949.521Z" fill="#48BAC3" fill-opacity="0.3"/>
<path d="M1396.5 918.271C1397.84 918.348 1399.09 917.43 1399.23 916.169C1399.37 914.943 1398.37 913.849 1397.03 913.772C1395.69 913.695 1394.45 914.648 1394.31 915.874C1394.14 917.143 1395.13 918.202 1396.5 918.271Z" fill="#48BAC3" fill-opacity="0.3"/>
<path d="M1424.44 927.769C1424.88 927.386 1424.86 926.737 1424.47 926.386C1424.06 926.001 1423.35 926.044 1422.95 926.419C1422.51 926.803 1422.53 927.451 1422.92 927.802C1423.32 928.153 1424.04 928.145 1424.44 927.769Z" fill="#48BAC3" fill-opacity="0.3"/>
<path d="M1435.42 911.874C1435.48 909.722 1433.67 907.969 1431.26 907.974C1428.9 908.005 1426.9 909.735 1426.81 911.931C1426.7 914.091 1428.56 915.835 1430.96 915.796C1433.37 915.826 1435.36 914.061 1435.42 911.874Z" fill="#48BAC3" fill-opacity="0.3"/>
<path d="M1439.93 905.004C1441.66 904.636 1442.82 903.086 1442.49 901.56C1442.2 899.991 1440.54 899.002 1438.81 899.369C1437.09 899.737 1435.93 901.287 1436.27 902.848C1436.55 904.382 1438.21 905.372 1439.93 905.004Z" fill="#48BAC3" fill-opacity="0.3"/>
<path d="M1465.21 901.074C1465.65 898.589 1463.8 896.335 1461.05 896.05C1458.34 895.757 1455.79 897.532 1455.37 900.052C1454.93 902.537 1456.78 904.791 1459.49 905.084C1462.23 905.335 1464.78 903.559 1465.21 901.074Z" fill="#48BAC3" fill-opacity="0.3"/>
<path d="M1480.92 886.458C1483.34 886.739 1485.62 885.202 1486.08 883.003C1486.49 880.777 1484.89 878.759 1482.5 878.435C1480.06 878.119 1477.79 879.691 1477.34 881.89C1476.89 884.124 1478.49 886.176 1480.92 886.458Z" fill="#48BAC3" fill-opacity="0.3"/>
<path d="M1494.38 880.149C1495.9 880.549 1497.57 879.687 1498.03 878.284C1498.53 876.872 1497.66 875.391 1496.13 875.026C1494.6 874.626 1492.94 875.487 1492.48 876.891C1491.98 878.303 1492.85 879.749 1494.38 880.149Z" fill="#48BAC3" fill-opacity="0.3"/>
<path d="M1512.45 854.623C1514.25 854.602 1515.77 853.263 1515.86 851.613C1515.91 849.97 1514.51 848.638 1512.7 848.624C1510.9 848.645 1509.38 849.984 1509.29 851.634C1509.24 853.311 1510.65 854.643 1512.45 854.623Z" fill="#48BAC3" fill-opacity="0.3"/>
<path d="M1527.64 842.291C1529.26 841.075 1529.57 838.943 1528.31 837.543C1527.08 836.101 1524.75 835.908 1523.13 837.124C1521.5 838.34 1521.19 840.472 1522.45 841.872C1523.68 843.279 1526 843.473 1527.64 842.291Z" fill="#48BAC3" fill-opacity="0.3"/>
<path d="M1553.26 824.149C1553.57 823.141 1552.95 822.148 1551.89 821.866C1550.8 821.628 1549.68 822.228 1549.33 823.209C1549.02 824.217 1549.64 825.245 1550.7 825.492C1551.8 825.765 1552.95 825.157 1553.26 824.149Z" fill="#48BAC3" fill-opacity="0.3"/>
<path d="M1545.72 805.852C1547.97 805.698 1549.72 803.913 1549.65 801.897C1549.57 799.847 1547.68 798.327 1545.43 798.481C1543.22 798.626 1541.43 800.42 1541.54 802.427C1541.61 804.477 1543.5 805.997 1545.72 805.852Z" fill="#48BAC3" fill-opacity="0.3"/>
<path d="M1565.02 790.433C1566.82 790.412 1568.33 789.039 1568.38 787.362C1568.42 785.684 1566.98 784.395 1565.14 784.424C1563.34 784.445 1561.83 785.818 1561.79 787.495C1561.77 789.129 1563.22 790.453 1565.02 790.433Z" fill="#48BAC3" fill-opacity="0.3"/>
<path d="M1592.87 787.296C1593.02 785.707 1591.69 784.358 1589.91 784.302C1588.13 784.245 1586.64 785.506 1586.49 787.095C1586.36 788.719 1587.68 790.033 1589.46 790.09C1591.2 790.155 1592.73 788.885 1592.87 787.296Z" fill="#48BAC3" fill-opacity="0.3"/>
<path d="M1585.97 763.714C1587.21 763.306 1587.87 762.078 1587.47 760.966C1587.07 759.854 1585.75 759.301 1584.52 759.71C1583.28 760.118 1582.62 761.346 1583.01 762.458C1583.41 763.57 1584.73 764.123 1585.97 763.714Z" fill="#48BAC3" fill-opacity="0.3"/>
<path d="M1589.73 732.354C1592.45 732.353 1594.71 730.349 1594.86 727.852C1594.98 725.363 1592.86 723.348 1590.14 723.348C1587.41 723.349 1585.11 725.361 1585 727.85C1584.89 730.374 1587 732.354 1589.73 732.354Z" fill="#48BAC3" fill-opacity="0.3"/>
<path d="M1626.9 721.542C1628.07 721.004 1628.55 719.704 1627.97 718.668C1627.43 717.623 1626.02 717.234 1624.9 717.799C1623.73 718.338 1623.24 719.637 1623.82 720.639C1624.36 721.684 1625.77 722.108 1626.9 721.542Z" fill="#48BAC3" fill-opacity="0.3"/>
<path d="M1636.27 694.351C1638.12 693.051 1638.55 690.713 1637.2 689.079C1635.85 687.445 1633.3 687.153 1631.45 688.453C1629.6 689.753 1629.18 692.091 1630.49 693.734C1631.84 695.368 1634.43 695.651 1636.27 694.351Z" fill="#48BAC3" fill-opacity="0.3"/>
<path d="M1639.4 662.654C1640.58 662.547 1641.51 661.625 1641.48 660.544C1641.45 659.462 1640.43 658.663 1639.25 658.734C1638.06 658.806 1637.14 659.763 1637.17 660.844C1637.2 661.926 1638.21 662.725 1639.4 662.654Z" fill="#48BAC3" fill-opacity="0.3"/>
<path d="M1662.4 639.559C1663.57 639.383 1664.36 638.381 1664.17 637.332C1664.03 636.275 1662.96 635.596 1661.8 635.772C1660.63 635.948 1659.84 636.95 1659.99 638.006C1660.17 639.055 1661.24 639.769 1662.4 639.559Z" fill="#48BAC3" fill-opacity="0.3"/>
<path d="M1692.54 619.441C1693.08 618.963 1693.12 618.194 1692.61 617.721C1692.11 617.248 1691.27 617.246 1690.73 617.723C1690.19 618.201 1690.15 618.97 1690.65 619.443C1691.19 619.908 1692 619.918 1692.54 619.441Z" fill="#48BAC3" fill-opacity="0.3"/>
<path d="M1726.23 633.188C1726.3 632.376 1725.6 631.727 1724.71 631.699C1723.82 631.671 1723.08 632.336 1723.02 633.148C1722.95 633.96 1723.65 634.609 1724.54 634.637C1725.42 634.631 1726.17 634 1726.23 633.188Z" fill="#48BAC3" fill-opacity="0.3"/>
<path d="M1742.13 601.962C1743.07 602.051 1743.98 601.423 1744.11 600.525C1744.24 599.627 1743.6 598.858 1742.61 598.742C1741.67 598.653 1740.76 599.281 1740.63 600.179C1740.5 601.077 1741.19 601.872 1742.13 601.962Z" fill="#48BAC3" fill-opacity="0.3"/>
<path d="M1763.44 598.588C1764.71 598.137 1765.4 596.865 1764.95 595.692C1764.5 594.554 1763.14 593.975 1761.82 594.399C1760.56 594.851 1759.86 596.122 1760.31 597.295C1760.76 598.468 1762.13 599.047 1763.44 598.588Z" fill="#48BAC3" fill-opacity="0.3"/>
<path d="M1776.78 574.576C1778.97 573.566 1779.86 571.165 1778.85 569.206C1777.83 567.248 1775.22 566.497 1773.04 567.542C1770.84 568.553 1769.91 570.962 1770.97 572.912C1772.02 574.828 1774.63 575.578 1776.78 574.576Z" fill="#48BAC3" fill-opacity="0.3"/>
<path d="M1799.65 580.042C1800.65 579.467 1800.96 578.277 1800.37 577.388C1799.77 576.498 1798.48 576.266 1797.48 576.841C1796.48 577.417 1796.17 578.606 1796.76 579.496C1797.38 580.342 1798.65 580.618 1799.65 580.042Z" fill="#48BAC3" fill-opacity="0.3"/>
<path d="M1812.18 561.097C1814.84 561.147 1817.08 559.221 1817.24 556.793C1817.41 554.365 1815.39 552.403 1812.73 552.352C1810.07 552.302 1807.83 554.228 1807.67 556.656C1807.5 559.084 1809.53 561.081 1812.18 561.097Z" fill="#48BAC3" fill-opacity="0.3"/>
<path d="M1840.64 538.761C1841.79 538.698 1842.69 537.819 1842.67 536.807C1842.65 535.76 1841.72 534.979 1840.61 535.034C1839.46 535.097 1838.57 535.977 1838.59 537.024C1838.56 538.009 1839.53 538.817 1840.64 538.761Z" fill="#48BAC3" fill-opacity="0.3"/>
<path d="M1872.46 554.033C1873.22 553.29 1873.26 552.158 1872.51 551.448C1871.72 550.781 1870.48 550.791 1869.67 551.508C1868.86 552.224 1868.87 553.383 1869.62 554.093C1870.37 554.768 1871.65 554.749 1872.46 554.033Z" fill="#48BAC3" fill-opacity="0.3"/>
</mask>
<g mask="url(#mask0_6_506)">
<rect y="-41" width="1980" height="1081" fill="#48BAC3"/>
</g>
</svg>
